<svg width="233" height="70" viewBox="0 0 233 70" fill="none" xmlns="http://www.w3.org/2000/svg">
<path fill-rule="evenodd" clip-rule="evenodd" d="M160.055 30.5783C155.928 28.2572 151.121 27.578 146.577 27.6841L158.818 10.2089C159.951 8.63782 160.591 7.64748 160.596 6.88996L160.598 2.36702C160.596 1.58626 159.991 1.03629 159.235 1.03478L135.603 1.03782C134.876 1.0363 134.272 1.57162 134.267 2.37308V7.64597C134.273 8.4348 134.878 8.97366 135.633 8.97366L147.98 8.97518L133.799 29.3198C132.935 30.6258 132.92 32.0888 132.92 32.9438V38.2925C132.92 39.0671 133.779 39.953 134.602 39.5141C142.645 35.2416 152.297 35.6573 159.571 39.4681C160.461 39.9338 161.31 39.0369 161.31 38.2627V32.6373C161.237 31.8767 160.987 31.1015 160.055 30.5783ZM77.8444 0.356539C73.6164 0.356539 69.6566 2.53064 67.9128 7.18893C65.8992 2.53014 63.0807 0.356539 58.5841 0.356539C54.1556 0.356539 50.8669 2.53064 49.1221 7.18893H48.9877V2.37257C48.9428 1.69938 48.3807 1.16861 47.6807 1.13326L40.9857 1.13477C40.2186 1.13477 39.5974 1.72564 39.5974 2.46398L39.5929 39.3621C39.6479 40.0181 40.1949 40.5307 40.8787 40.5761H48.0681C48.8337 40.5761 49.4559 39.9838 49.4544 39.2485L49.4574 19.6906C49.4574 15.4197 49.2554 9.51858 54.4237 9.51858C59.5234 9.51858 58.8527 15.5758 58.8527 19.6906L58.8593 39.2495C58.8593 39.958 59.428 40.5287 60.1496 40.5756H67.331C68.0956 40.5756 68.7167 39.9833 68.7167 39.2479V19.6901C68.7167 17.5928 68.6491 14.4874 69.3884 12.6234C70.1267 10.7609 71.9388 9.59634 73.6836 9.59634C75.7638 9.59634 77.3748 10.2953 77.9111 12.78C78.2474 14.2551 78.1121 18.1367 78.1121 19.6906L78.1136 39.2495C78.1136 39.958 78.6833 40.5287 79.4049 40.5756H86.5858C87.3514 40.5756 87.9726 39.9833 87.9726 39.2479L87.9786 15.9631C87.9786 12.0017 88.4483 7.49951 86.1651 4.39466C84.1526 1.59888 80.8644 0.356539 77.8444 0.356539ZM180.941 0.356539C170.539 0.356539 164.768 9.28627 164.768 20.7769C164.768 32.1924 170.473 41.3544 180.941 41.3544C191.008 41.3544 197.382 32.4236 197.382 21.1658C197.381 9.51908 191.612 0.356539 180.941 0.356539ZM180.941 33.7443C175.305 33.7443 175.371 24.1166 175.371 19.6129C175.371 15.1091 175.706 7.88938 181.008 7.88938C183.289 7.88938 184.901 8.89892 185.705 11.4604C186.645 14.4107 186.78 18.1377 186.78 21.2441C186.779 25.9791 186.513 33.7443 180.941 33.7443ZM230.403 4.70626C228.39 1.52263 225.236 0.357048 222.013 0.357048C217.048 0.357048 214.231 2.76548 212.219 7.81161H212.082V2.16855C211.95 1.59535 211.434 1.16507 210.805 1.13376L204.137 1.13528C203.412 1.13528 202.817 1.66606 202.755 2.33924L202.767 39.2505C202.767 39.959 203.335 40.5297 204.058 40.5767H211.22C211.987 40.5767 212.608 39.9843 212.62 39.249V19.3796C212.62 16.8949 212.754 14.643 213.762 12.3911C214.567 10.6064 216.176 9.4408 217.921 9.4408C222.889 9.4408 222.418 15.3414 222.418 19.3796V39.4151C222.495 40.0429 223.033 40.5337 223.699 40.5761H230.906C231.616 40.5761 232.203 40.0691 232.285 39.4151V16.1959C232.285 12.6239 232.285 7.65607 230.403 4.70626ZM125.518 27.1538V15.953C125.518 11.2068 125.854 6.84703 122.357 3.58007C119.6 0.93479 115.026 0 111.529 0C104.688 0 97.0533 2.55438 95.4519 11.0074C95.2822 11.9063 95.9367 12.378 96.525 12.5108L103.493 13.2653C104.145 13.2315 104.616 12.5901 104.742 11.9437C105.341 9.03123 107.778 7.62526 110.52 7.62526C112 7.62526 113.681 8.17068 114.556 9.49382C115.564 10.972 115.43 12.9956 115.43 14.7076V15.6409C111.26 16.108 105.812 16.4191 101.912 18.1316C97.4058 20.077 94.2454 24.0444 94.2454 29.8819C94.2454 37.3506 98.9532 41.0867 105.006 41.0867C110.118 41.0867 112.912 39.8812 116.859 35.8608C118.164 37.7501 118.592 38.6672 120.979 40.6519C121.516 40.9403 122.201 40.91 122.678 40.4837L122.694 40.4999C124.129 39.2222 126.739 36.9567 128.208 35.725C128.794 35.2477 128.69 34.4695 128.232 33.815C126.918 31.9994 125.518 30.5228 125.518 27.1538ZM114.085 30.5813C112.941 32.6065 111.126 33.8488 109.109 33.8488C106.351 33.8488 104.737 31.7474 104.737 28.6365C104.737 22.5147 110.229 21.3991 115.43 21.3991V22.9566C115.43 25.7579 115.497 28.0906 114.085 30.5813ZM31.2732 27.1538V15.953C31.2732 11.2068 31.6096 6.84703 28.1128 3.58007C25.3549 0.93479 20.7815 0 17.2847 0C10.4433 0 2.80891 2.55438 1.208 11.0074C1.03781 11.9063 1.69181 12.378 2.28066 12.5108L9.24839 13.2653C9.90037 13.2315 10.3731 12.5901 10.4973 11.9437C11.0957 9.03123 13.534 7.62526 16.2757 7.62526C17.7544 7.62526 19.4361 8.17068 20.3113 9.49382C21.3193 10.972 21.185 12.9956 21.185 14.7076V15.6409C17.0151 16.108 11.5674 16.4191 7.66617 18.1316C3.16091 20.077 0 24.0444 0 29.8819C0 37.3506 4.70676 41.0867 10.7604 41.0867C15.8712 41.0867 18.667 39.8812 22.6127 35.8608C23.9181 37.7501 24.3459 38.6672 26.7341 40.6519C27.2699 40.9403 27.9563 40.91 28.4325 40.4837L28.4492 40.4999C29.8839 39.2222 32.4949 36.9567 33.9624 35.725C34.5472 35.2477 34.4442 34.4695 33.9862 33.815C32.6726 31.9994 31.2732 30.5228 31.2732 27.1538ZM19.8401 30.5813C18.6973 32.6065 16.8807 33.8488 14.8637 33.8488C12.1073 33.8488 10.4928 31.7474 10.4928 28.6365C10.4928 22.5147 15.9853 21.3991 21.186 21.3991V22.9566C21.186 25.7579 21.2527 28.0906 19.8401 30.5813Z" fill="#999999"/>
<path fill-rule="evenodd" clip-rule="evenodd" d="M142.144 51.5896C127.015 58.0079 110.571 61.1102 95.6131 61.1102C73.4387 61.1102 51.9694 55.0283 34.6089 44.9254C33.0903 44.0416 31.9626 45.6021 33.2257 46.7414C49.3181 61.2723 70.5808 70 94.1955 70C111.043 70 130.61 64.7019 144.106 54.7424C146.339 53.0941 144.427 50.6215 142.144 51.5896ZM155.481 43.933C154.01 42.119 141.352 40.5509 133.628 45.9773C132.44 46.8126 132.644 47.9611 133.961 47.8035C138.312 47.2848 147.997 46.1203 149.723 48.3307C151.451 50.5412 147.803 59.6507 146.175 63.7196C145.682 64.9488 146.741 65.4468 147.855 64.5155C155.095 58.4568 156.965 45.7683 155.481 43.933Z" fill="#999999"/>
</svg>
