<svg width="342" height="70" viewBox="0 0 342 70" fill="none" xmlns="http://www.w3.org/2000/svg">
<path fill-rule="evenodd" clip-rule="evenodd" d="M50.4785 22.723H37.0693L35.8691 34.6764H48.1383C55.6411 34.6764 56.1999 36.1047 56.1999 40.9789V43.0419H46.2827C36.5387 43.0419 31.0922 46.4484 31.0922 55.9926C31.0922 64.0854 35.7599 69.9353 44.5319 69.9353C47.7445 69.9353 52.6172 69.4449 58.08 66.424L58.5958 69.4441H70.5536V41.0741C70.5529 27.919 66.9427 22.723 50.4785 22.723ZM56.1999 57.8467C54.0626 58.8269 52.3311 59.7796 49.4024 59.7796C46.6736 59.7796 45.4378 58.4219 45.4378 55.8068C45.4378 53.1716 46.768 52.6113 49.7985 52.6113H56.2006V57.8467H56.1999ZM341.833 22.723H326.281L313.133 43.5383V1.20017L298.787 3.58862V69.355H313.133V47.4383L326.281 69.355H341.833L327.476 45.437L341.833 22.723ZM227.851 22.0809C210.987 22.0809 206.883 31.5336 206.883 41.2806V50.6895C206.883 60.4328 210.986 69.8841 227.851 69.8841C244.705 69.8841 248.735 60.4328 248.735 50.6895V41.2806C248.734 31.5336 244.705 22.0809 227.851 22.0809ZM234.374 52.0762C234.374 55.3958 232.669 58.0615 227.803 58.0615C222.922 58.0615 221.232 55.3958 221.232 52.0762V39.9876C221.232 36.6791 222.922 34.0194 227.803 34.0194C232.669 34.0194 234.374 36.6791 234.374 39.9876V52.0762ZM32.3607 22.723H21.5169L21.5347 16.74C21.5347 13.624 21.8319 11.9534 26.3094 11.9534H32.2916V0H22.717C11.2184 0 7.17129 5.79946 7.17129 15.5487V22.723H0V34.6764H7.17129V69.355H21.5169V34.6764H31.0915L32.3607 22.723ZM75.3372 41.8499V50.2221C75.3372 61.9109 81.457 70 96.8623 70C100.451 70 104.696 69.6165 111.215 68.1548V56.5001C103.773 57.7798 101.637 58.0615 98.0565 58.0615C91.6246 58.0615 89.682 56.6413 89.682 51.186V40.8667C89.682 35.4173 91.6246 33.9971 98.0565 33.9971C101.637 33.9971 103.773 34.2788 111.215 35.5525V23.8994C104.696 22.4369 100.45 22.0497 96.8623 22.0497C81.4577 22.0497 75.3372 30.1536 75.3372 41.8499ZM186.02 22.0497C182.369 22.0497 178.356 22.6323 175.257 23.7842V1.20017L160.914 3.58862V68.1548C168.719 69.355 172.873 69.9777 179.94 69.9777C199.525 69.9777 202.756 61.7385 202.756 50.4421V38.7926C202.755 28.4734 200.368 22.0497 186.02 22.0497ZM188.41 50.5401C188.41 55.0228 187.449 58.2376 180.425 58.2376C178.478 58.2376 177.309 58.2376 175.257 58.0377V35.9508C177.396 34.9758 179.503 34.0179 182.43 34.0179C187.311 34.0179 188.41 36.6776 188.41 39.9861V50.5401V50.5401ZM273.796 22.0809C256.931 22.0809 252.826 31.5336 252.826 41.2806V50.6895C252.826 60.4328 256.931 69.8841 273.796 69.8841C290.644 69.8841 294.676 60.4328 294.676 50.6895V41.2806C294.676 31.5336 290.644 22.0809 273.796 22.0809ZM280.333 52.0762C280.333 55.3958 278.612 58.0615 273.745 58.0615C268.873 58.0615 267.182 55.3958 267.182 52.0762V39.9876C267.182 36.6791 268.873 34.0194 273.745 34.0194C278.612 34.0194 280.333 36.6791 280.333 39.9876V52.0762ZM135.789 22.0497C120.007 22.0497 115.459 30.4263 115.459 40.6497V50.2221C115.459 61.9109 121.584 70 136.99 70C144.021 70 147.752 69.6165 154.914 68.1548V56.5001C147.488 57.7798 143.961 58.0615 138.179 58.0615C131.75 58.0615 129.806 56.6413 129.806 51.186V50.2221H156.114V40.6497C156.115 30.3275 151.577 22.0497 135.789 22.0497ZM141.769 40.6497H129.806V38.7926C129.806 35.4849 130.916 32.8133 135.789 32.8133C140.657 32.8133 141.769 35.4849 141.769 38.7926V40.6497V40.6497Z" fill="#999999"/>
</svg>
