<svg width="126" height="44" viewBox="0 0 126 44" fill="none" xmlns="http://www.w3.org/2000/svg">
<path fill-rule="evenodd" clip-rule="evenodd" d="M56 21.5938L44.6875 2L38.03 13.5312L33.2578 5.26563L26.2131 17.4674L20.7396 7.98699L0 43.909H41.4791L36.6085 35.4727H50.6979L42.6849 21.5938H56Z" fill="#8CC5F9"/>
<path d="M68.998 8.29297C68.8763 7.59831 68.4215 7.20443 67.6338 7.11133C67.5837 6.76042 67.5586 6.56348 67.5586 6.52051C67.5586 6.47038 67.5622 6.41667 67.5693 6.35938C68.9229 5.82943 70.2943 5.56445 71.6836 5.56445C71.748 5.56445 71.8161 5.56445 71.8877 5.56445C72.0381 5.75781 72.1383 6.20898 72.1885 6.91797C72.2386 7.61979 72.2637 9.25977 72.2637 11.8379C72.2637 14.4089 72.2243 17.7962 72.1455 22C71.6729 22.1361 71.1071 22.2041 70.4482 22.2041C69.7894 22.2041 69.2773 22.1289 68.9121 21.9785C69.041 21.0189 69.1055 19.1891 69.1055 16.4893C69.1055 13.7894 69.0697 11.0573 68.998 8.29297ZM84.9932 15.9307L84.9287 19.54C84.9287 19.5758 84.9287 19.6117 84.9287 19.6475C84.9287 20.0413 85.1149 20.2383 85.4873 20.2383C85.7738 20.2383 86.0781 20.1452 86.4004 19.959C86.5007 20.0449 86.5938 20.1667 86.6797 20.3242C86.7728 20.4746 86.8265 20.5928 86.8408 20.6787C85.9528 21.8102 85.029 22.376 84.0693 22.376C83.1169 22.376 82.4508 21.9069 82.0713 20.9688C81.4124 21.4271 80.7393 21.7744 80.0518 22.0107C79.3714 22.2542 78.7842 22.376 78.29 22.376C77.8031 22.376 77.3483 22.3223 76.9258 22.2148C76.5104 22.1074 76.1237 21.9355 75.7656 21.6992C74.9922 21.1979 74.6055 20.3708 74.6055 19.2178C74.6055 18.6019 74.7738 18.0648 75.1104 17.6064C75.4541 17.141 75.9196 16.7757 76.5068 16.5107C77.6312 16.0023 78.974 15.7266 80.5352 15.6836L81.7812 15.6406C81.8314 15.0605 81.8564 14.6022 81.8564 14.2656C81.8564 13.5065 81.7096 12.9336 81.416 12.5469C81.1296 12.1602 80.5924 11.9668 79.8047 11.9668C79.332 11.9668 78.9632 12.1315 78.6982 12.4609C78.4404 12.7904 78.3115 13.2773 78.3115 13.9219C78.3115 14.0078 78.1898 14.1117 77.9463 14.2334C77.5381 14.4268 77.1299 14.5234 76.7217 14.5234C76.3206 14.5234 75.9984 14.4089 75.7549 14.1797C75.5186 13.9505 75.4004 13.6283 75.4004 13.2129C75.4004 12.7975 75.5508 12.4072 75.8516 12.042C76.1523 11.6768 76.5534 11.3939 77.0547 11.1934C78.0501 10.7995 79.1852 10.6025 80.46 10.6025C81.792 10.6025 82.766 10.8138 83.3818 11.2363C83.9404 11.6087 84.3379 12.1423 84.5742 12.8369C84.8535 13.6462 84.9932 14.6774 84.9932 15.9307ZM81.7812 19.8408C81.6882 19.318 81.6416 18.8669 81.6416 18.4873C81.6416 18.1006 81.6523 17.5635 81.6738 16.876L80.1807 16.9404C79.4144 16.9404 78.8236 17.1266 78.4082 17.499C77.9928 17.8714 77.7852 18.3369 77.7852 18.8955C77.7852 19.4541 77.9069 19.8551 78.1504 20.0986C78.3939 20.3421 78.8844 20.4639 79.6221 20.4639C80.3669 20.4639 81.0866 20.2562 81.7812 19.8408ZM90.0635 25.04C90.1423 25.3337 90.2783 25.5951 90.4717 25.8242C90.6722 26.0605 90.9157 26.1787 91.2021 26.1787C91.6676 26.1787 92.1009 25.8708 92.502 25.2549C92.903 24.6462 93.2467 23.7868 93.5332 22.6768C93.39 22.2686 92.9889 21.3483 92.3301 19.916C91.6784 18.4837 90.9085 16.9583 90.0205 15.3398C89.0251 13.5352 88.2946 12.554 87.8291 12.3965C87.7217 12.3607 87.6035 12.3392 87.4746 12.332C87.3529 12.3249 87.2454 12.3177 87.1523 12.3105C87.0521 12.3034 86.9876 12.2998 86.959 12.2998C86.9089 11.9489 86.8838 11.752 86.8838 11.709C86.8838 11.6589 86.8874 11.6051 86.8945 11.5479C88.0475 10.9033 89.1217 10.5811 90.1172 10.5811C90.5397 10.5811 90.9479 10.6634 91.3418 10.8281C91.7357 10.9928 92.2477 11.8307 92.8779 13.3418C93.5153 14.8457 94.235 17.0658 95.0371 20.002C95.9753 16.8366 96.7057 14.2692 97.2285 12.2998C97.3789 11.7269 97.6439 11.2936 98.0234 11C98.4102 10.7064 98.7861 10.5596 99.1514 10.5596C100.211 10.5596 100.884 10.9714 101.171 11.7949C101.085 11.7949 100.913 11.931 100.655 12.2031C100.405 12.4681 100.129 12.8333 99.8281 13.2988C99.5273 13.7572 99.1943 14.3802 98.8291 15.168C98.471 15.9557 98.138 16.765 97.8301 17.5957C97.5293 18.4264 97.1999 19.3145 96.8418 20.2598C96.4837 21.1979 96.1364 22.0931 95.7998 22.9453C95.4704 23.8047 95.1016 24.6318 94.6934 25.4268C94.2852 26.2217 93.877 26.9056 93.4688 27.4785C93.0605 28.0586 92.6022 28.5205 92.0938 28.8643C91.5853 29.2152 91.0911 29.3906 90.6113 29.3906C90.1387 29.3906 89.7448 29.3226 89.4297 29.1865C89.1217 29.0576 88.8818 28.8822 88.71 28.6602C88.3805 28.209 88.2158 27.7184 88.2158 27.1885C88.2158 26.6657 88.3913 26.2074 88.7422 25.8135C89.1003 25.4196 89.5407 25.1618 90.0635 25.04ZM105.758 17.3594C105.973 18.4193 106.431 19.2751 107.133 19.9268C107.835 20.5785 108.655 20.9043 109.593 20.9043C110.531 20.9043 111.476 20.4997 112.429 19.6904C112.787 19.9268 113.005 20.2061 113.084 20.5283C112.425 21.2946 111.451 21.8424 110.162 22.1719C109.639 22.3079 109.034 22.376 108.347 22.376C107.666 22.376 106.961 22.2507 106.23 22C105.5 21.7565 104.845 21.3984 104.265 20.9258C103.692 20.4531 103.237 19.8337 102.9 19.0674C102.564 18.2939 102.396 17.4382 102.396 16.5C102.396 15.5618 102.567 14.7132 102.911 13.9541C103.255 13.1878 103.71 12.5612 104.275 12.0742C105.457 11.0501 106.811 10.5381 108.336 10.5381C109.675 10.5381 110.835 10.8997 111.816 11.623C112.289 11.9811 112.665 12.4466 112.944 13.0195C113.231 13.5853 113.374 14.2262 113.374 14.9424C113.374 16.167 112.969 16.8115 112.16 16.876L105.758 17.3594ZM110.484 14.6201C110.484 13.7679 110.248 13.1019 109.775 12.6221C109.303 12.1423 108.683 11.9023 107.917 11.9023C107.151 11.9023 106.571 12.264 106.177 12.9873C105.783 13.7035 105.586 14.6989 105.586 15.9736C107.369 15.7803 108.98 15.5762 110.42 15.3613C110.463 15.1035 110.484 14.8564 110.484 14.6201ZM122.677 14.792C122.677 13.5674 122.397 12.9551 121.839 12.9551C121.431 12.9551 121.04 13.0732 120.668 13.3096C120.296 13.5387 119.895 13.861 119.465 14.2764C119.465 14.9925 119.443 17.5742 119.4 22.0215C118.605 22.1576 117.954 22.2256 117.445 22.2256C116.944 22.2256 116.511 22.1576 116.146 22.0215C116.231 20.8327 116.274 18.7952 116.274 15.9092V13.3955C116.274 12.8512 116.085 12.529 115.705 12.4287C115.447 12.3499 115.1 12.2926 114.663 12.2568C114.613 12.042 114.588 11.8809 114.588 11.7734C114.588 11.6589 114.591 11.5693 114.599 11.5049C115.63 10.9248 116.905 10.6348 118.423 10.6348C118.674 10.6348 118.86 10.6383 118.981 10.6455C119.189 11.0036 119.311 11.376 119.347 11.7627C119.39 12.1494 119.422 12.5182 119.443 12.8691C120.403 11.7018 121.212 10.9928 121.871 10.7422C122.186 10.6204 122.519 10.5596 122.87 10.5596C123.586 10.5596 124.159 10.7601 124.589 11.1611C125.026 11.555 125.244 12.1351 125.244 12.9014C125.244 13.4886 125.029 13.9792 124.6 14.373C124.177 14.7598 123.665 14.9531 123.063 14.9531C122.935 14.9531 122.806 14.9424 122.677 14.9209V14.792Z" fill="#8CC5F9"/>
</svg>
