<svg width="261" height="70" viewBox="0 0 261 70" fill="none" xmlns="http://www.w3.org/2000/svg">
<path d="M173.35 0H162.379V61.3593C172.349 61.7023 182.278 62.2053 192.167 62.8646V52.0543C185.911 51.6371 179.64 51.2835 173.35 50.9906V0ZM260.541 0.00620706H248.489L240.545 18.4195L233.408 0.00620706H221.536L234.293 32.9082L220.368 65.1861C224.22 65.5619 228.062 65.9628 231.899 66.3864L239.999 47.6189L248.019 68.3073C252.197 68.8445 256.363 69.405 260.522 69.9985L260.541 69.9914L246.248 33.1304L260.541 0.00620706ZM124.718 60.823L135.689 60.8207V35.8614H150.562V25.0511H135.689V10.9144H155.346V0.00675589H124.718V60.823ZM83.7473 10.9136H95.2302V61.4659C98.881 61.3279 102.539 61.2143 106.202 61.1184V10.9136H117.684V0.00620706H83.7473V10.9136ZM46.2383 64.6077C56.3504 63.6888 66.5091 62.9315 76.714 62.3437V51.5321C70.1939 51.909 63.6923 52.3552 57.2096 52.865V36.4984C61.4632 36.4561 67.0641 36.3263 72.0261 36.388V25.5767C68.0619 25.5671 61.6906 25.6321 57.2096 25.6894V10.9144H76.714V0.00675589H46.2383V64.6077ZM24.7166 39.6158L10.4271 0.00620706H0V70C3.65012 69.4804 7.30717 68.9829 10.9713 68.5056V30.4432L23.6772 66.9427C27.6735 66.4793 31.6769 66.0404 35.6881 65.6278V0.00620706H24.7166V39.6158ZM201.212 63.5155C204.874 63.7958 208.531 64.0965 212.185 64.4215V0.00620706H201.212V63.5155Z" fill="#999999"/>
</svg>
