<svg width="278" height="70" viewBox="0 0 278 70" fill="none" xmlns="http://www.w3.org/2000/svg">
<path d="M61.25 0H8.75C3.91708 0 0 3.91708 0 8.75V61.25C0 66.08 3.91708 70 8.75 70H61.25C66.08 70 70 66.08 70 61.25V8.75C70 3.91708 66.08 0 61.25 0ZM30.45 53.025C30.45 55.3438 28.5688 57.225 26.25 57.225H13.3C10.9813 57.225 9.1 55.3408 9.1 53.025V13.3C9.1 10.9813 10.9813 9.1 13.3 9.1H26.25C28.5688 9.1 30.45 10.9813 30.45 13.3V53.025ZM60.9 35.525C60.9 37.8408 59.0188 39.725 56.7 39.725H43.75C41.4313 39.725 39.55 37.8408 39.55 35.525V13.3C39.55 10.9813 41.4342 9.1 43.75 9.1H56.7C59.0188 9.1 60.9 10.9813 60.9 13.3V35.525V35.525Z" fill="#999999"/>
<path d="M111.201 60V18.84H97.2015V9.88H134.651V18.84H120.651V60H111.201ZM136.082 25.7H144.692V30.46H145.252C145.672 29.62 146.232 28.85 146.932 28.15C147.632 27.45 148.402 26.8433 149.242 26.33C150.129 25.8167 151.062 25.42 152.042 25.14C153.069 24.86 154.072 24.72 155.052 24.72C156.265 24.72 157.292 24.8367 158.132 25.07C159.019 25.3033 159.765 25.6067 160.372 25.98L157.922 34.31C157.362 34.03 156.732 33.82 156.032 33.68C155.379 33.4933 154.562 33.4 153.582 33.4C152.322 33.4 151.179 33.6567 150.152 34.17C149.125 34.6367 148.239 35.3133 147.492 36.2C146.792 37.0867 146.232 38.1367 145.812 39.35C145.439 40.5167 145.252 41.8 145.252 43.2V60H136.082V25.7ZM194.949 51.74C193.362 54.54 191.215 56.8033 188.509 58.53C185.849 60.2567 182.582 61.12 178.709 61.12C176.095 61.12 173.669 60.6767 171.429 59.79C169.235 58.8567 167.322 57.5733 165.689 55.94C164.055 54.3067 162.772 52.3933 161.839 50.2C160.952 47.96 160.509 45.51 160.509 42.85C160.509 40.3767 160.952 38.0433 161.839 35.85C162.725 33.61 163.962 31.6733 165.549 30.04C167.135 28.36 169.002 27.03 171.149 26.05C173.342 25.07 175.745 24.58 178.359 24.58C181.112 24.58 183.562 25.0467 185.709 25.98C187.855 26.8667 189.652 28.1267 191.099 29.76C192.545 31.3467 193.642 33.2367 194.389 35.43C195.135 37.6233 195.509 40.0033 195.509 42.57C195.509 42.8967 195.509 43.1767 195.509 43.41C195.462 43.69 195.439 43.9467 195.439 44.18C195.392 44.4133 195.369 44.67 195.369 44.95H169.539C169.725 46.35 170.099 47.5633 170.659 48.59C171.265 49.57 171.989 50.41 172.829 51.11C173.715 51.7633 174.672 52.2533 175.699 52.58C176.725 52.86 177.775 53 178.849 53C180.949 53 182.675 52.5333 184.029 51.6C185.429 50.62 186.525 49.4067 187.319 47.96L194.949 51.74ZM186.619 38.44C186.572 37.8333 186.362 37.1567 185.989 36.41C185.662 35.6633 185.149 34.9633 184.449 34.31C183.795 33.6567 182.955 33.12 181.929 32.7C180.949 32.28 179.759 32.07 178.359 32.07C176.399 32.07 174.672 32.63 173.179 33.75C171.685 34.87 170.635 36.4333 170.029 38.44H186.619ZM201.365 60V9.88H210.535V60H201.365ZM218.387 60V9.88H227.557V60H218.387ZM251.306 24.58C253.966 24.58 256.393 25.0467 258.586 25.98C260.826 26.8667 262.74 28.1267 264.326 29.76C265.96 31.3467 267.22 33.26 268.106 35.5C269.04 37.74 269.506 40.19 269.506 42.85C269.506 45.51 269.04 47.96 268.106 50.2C267.22 52.44 265.96 54.3767 264.326 56.01C262.74 57.5967 260.826 58.8567 258.586 59.79C256.393 60.6767 253.966 61.12 251.306 61.12C248.646 61.12 246.196 60.6767 243.956 59.79C241.763 58.8567 239.85 57.5967 238.216 56.01C236.63 54.3767 235.37 52.44 234.436 50.2C233.55 47.96 233.106 45.51 233.106 42.85C233.106 40.19 233.55 37.74 234.436 35.5C235.37 33.26 236.63 31.3467 238.216 29.76C239.85 28.1267 241.763 26.8667 243.956 25.98C246.196 25.0467 248.646 24.58 251.306 24.58ZM251.306 52.65C252.473 52.65 253.593 52.44 254.666 52.02C255.786 51.5533 256.766 50.9 257.606 50.06C258.446 49.22 259.1 48.1933 259.566 46.98C260.08 45.7667 260.336 44.39 260.336 42.85C260.336 41.31 260.08 39.9333 259.566 38.72C259.1 37.5067 258.446 36.48 257.606 35.64C256.766 34.8 255.786 34.17 254.666 33.75C253.593 33.2833 252.473 33.05 251.306 33.05C250.093 33.05 248.95 33.2833 247.876 33.75C246.803 34.17 245.846 34.8 245.006 35.64C244.166 36.48 243.49 37.5067 242.976 38.72C242.51 39.9333 242.276 41.31 242.276 42.85C242.276 44.39 242.51 45.7667 242.976 46.98C243.49 48.1933 244.166 49.22 245.006 50.06C245.846 50.9 246.803 51.5533 247.876 52.02C248.95 52.44 250.093 52.65 251.306 52.65Z" fill="#999999"/>
</svg>
